# xmcd
#
# Track frame offsets:
#	183
#	11288
#	23530
#	36843
#	50280
#	63030
#	75368
#	86505
#	97880
#	109880
#	126680
#	137530
#	149245
#	162065
#	175203
#	186233
#	199493
#	213130
#	223218
#	234883
#
# Disc length: 3285 seconds
#
# Revision: 0
# Processed by: cddbd v1.4PL0 Copyright (c) Steve Scherf et al.
# Submitted via: audiograbber 1.80
#
DISCID=0e0cd314
DTITLE=Various Artist - Black Music Originals Vol. 2
DYEAR=1900
DGENRE=
TTITLE0=The Prisonaires - Baby Please
TTITLE1=The Prisonaires - Just Walkin' in the Rain
TTITLE2=Little Junior's Blue Flames - Feelin' Good
TTITLE3=Little Junior's Blue Flames - Fussin' and Fightin' Blues
TTITLE4=Rufus Thomas - Tiger Man
TTITLE5=Rufus Thomas - Save That Money
TTITLE6=The Prisonaires - My God Is Real
TTITLE7=The Prisonaires - Softly and Tenderly
TTITLE8=The Prisonaires - A Prisoner's Prayer
TTITLE9=The Prisonaires - I Know
TTITLE10=Little Junior's Blue Flames - Mystery Train
TTITLE11=Little Junior's Blue Flames - Love My Baby
TTITLE12=Doctor Ross - Come Back Baby
TTITLE13=Doctor Ross - Chicago Breakdown
TTITLE14=Little Milton - Beggin' My Baby
TTITLE15=Little Milton - Somebody Told Me
TTITLE16=Billy "The Kid" Emerson - No Teasing Around
TTITLE17=Billy "The Kid" Emerson - If Lovin' Is Believing
TTITLE18=Hot Shot Love - Wolf Call Boogie
TTITLE19=Hot Shot Love - Harmonica Jam
EXTD=From the Sun CD Collection.  Label:  Sun CD 4 (really Charly, though).  Sa
EXTD=m Phillips's singles, ordered chronologically by release.  Some blues, som
EXTD=e R&B, some gospel.
EXTT0=Originally released as Sun 186 (A side).
EXTT1=Originally released as Sun 186 (B side).
EXTT2=Originally released as Sun 187 (A side).  Basically the same song as John
EXTT2=Lee Hooker's "Boogie Chillun".
EXTT3=Originally released as Sun 187 (B side).
EXTT4=Originally released as Sun 188 (A side).  Flop followup to "Bearcat".
EXTT5=Originally released as Sun 188 (B side).
EXTT6=Originally released as Sun 189 (A side).
EXTT7=Originally released as Sun 189 (B side).
EXTT8=Originally released as Sun 191 (A side).
EXTT9=Originally released as Sun 191 (B side).
EXTT10=Originally released as Sun 192 (A side).  This is the song Elvis covered
EXTT10=
EXTT11=Originally released as Sun 192 (B side).
EXTT12=Originally released as Sun 193 (A side).
EXTT13=Originally released as Sun 193 (B side).
EXTT14=Originally released as Sun 194 (A side).  Later had success on the Chess
EXTT14=label.
EXTT15=Originally released as Sun 194 (B side).  Later had success on the Chess
EXTT15=label.
EXTT16=Originally released as Sun 195 (A side).
EXTT17=Originally released as Sun 195 (B side).
EXTT18=Originally released as Sun 196 (A side).  Real name is Coy Love.
EXTT19=Originally released as Sun 196 (B side).  Real name is Coy Love.
PLAYORDER=
